<svg width="18" height="18" viewBox="0 0 18 18" fill="none" xmlns="http://www.w3.org/2000/svg">
<path d="M9.23047 17.5117L10.0039 16.7383C10.1869 16.5553 10.1869 16.2585 10.0039 16.0754L3.9441 10.0157H17.2813C17.5401 10.0157 17.75 9.80578 17.75 9.54691V8.45316C17.75 8.1943 17.5401 7.98441 17.2813 7.98441H3.9441L10.0039 1.92465C10.1869 1.7416 10.1869 1.4448 10.0039 1.26172L9.23047 0.488359C9.04742 0.305312 8.75062 0.305312 8.56754 0.488359L0.3873 8.66859C0.204254 8.85164 0.204254 9.14844 0.3873 9.33152L8.56754 17.5118C8.75059 17.6948 9.04738 17.6948 9.23047 17.5117Z" fill="white"/>
</svg>
